<svg
  width="32"
  height="32"
  viewBox="0 0 32 32"
  fill="none"
  xmlns="http://www.w3.org/2000/svg"
>
  <path
    d="M21.7391 4H10.2609C6.80309 4 4 6.80309 4 10.2609V21.7391C4 25.1969 6.80309 28 10.2609 28H21.7391C25.1969 28 28 25.1969 28 21.7391V10.2609C28 6.80309 25.1969 4 21.7391 4Z"
    stroke="#1D4ED8"
    stroke-width="2"
    stroke-linecap="round"
    stroke-linejoin="round"
  />
  <path
    d="M10.05 11.5C11.0165 11.5 11.8 10.7165 11.8 9.75C11.8 8.7835 11.0165 8 10.05 8C9.0835 8 8.3 8.7835 8.3 9.75C8.3 10.7165 9.0835 11.5 10.05 11.5Z"
    fill="#1D4ED8"
  />
  <rect x="8.5" y="13" width="3" height="11" fill="#1D4ED8" />
  <path
    d="M14 13.0057H17.1818V14.0051C17.1818 14.0051 19.3538 12.1643 21.2727 12.488C23.2433 12.8205 24 13.2226 24 17.7202V24H20.8182V17.7202C20.8182 17.7202 20.8182 15.8193 19 15.8193C17.1818 15.8193 17.1818 17.7202 17.1818 17.7202V24H14V13.0057Z"
    fill="#1D4ED8"
  />
</svg>